<mxfile host="app.diagrams.net" modified="2024-01-26T16:44:03.294Z" agent="Mozilla/5.0 (Windows NT 10.0; Win64; x64) AppleWebKit/537.36 (KHTML, like Gecko) Chrome/120.0.0.0 Safari/537.36 OPR/106.0.0.0" version="23.0.2" etag="tY2b5T1fF_bJCRKgfy9E" type="github">
  <diagram name="PÃ¡gina-1" id="VHHUDjj2eFGpGV0uDBn-">
    <mxGraphModel>
      <root>
        <mxCell id="0" />
        <mxCell id="1" parent="0" />
      </root>
    </mxGraphModel>
  </diagram>
</mxfile>
